<mxfile host="app.diagrams.net" modified="2024-04-11T04:36:13.652Z" agent="Mozilla/5.0 (Windows NT 10.0; Win64; x64) AppleWebKit/537.36 (KHTML, like Gecko) Chrome/121.0.0.0 Safari/537.36 OPR/107.0.0.0" etag="FTYai0IgQNMsNEFUuXeH" version="24.2.3" type="github">
  <diagram name="PÃ¡gina-1" id="HKMnJRd7V0mAjjE5271p">
    <mxGraphModel dx="961" dy="528" grid="1" gridSize="10" guides="1" tooltips="1" connect="1" arrows="1" fold="1" page="1" pageScale="1" pageWidth="827" pageHeight="1169" math="0" shadow="0">
      <root>
        <mxCell id="0" />
        <mxCell id="1" parent="0" />
        <mxCell id="1r-yqEnqhw9y3_G6ekeF-5" value="" style="edgeStyle=orthogonalEdgeStyle;rounded=0;orthogonalLoop=1;jettySize=auto;html=1;" parent="1" source="1r-yqEnqhw9y3_G6ekeF-1" target="1r-yqEnqhw9y3_G6ekeF-3" edge="1">
          <mxGeometry relative="1" as="geometry" />
        </mxCell>
        <mxCell id="1r-yqEnqhw9y3_G6ekeF-1" value="INICIO" style="ellipse;whiteSpace=wrap;html=1;" parent="1" vertex="1">
          <mxGeometry x="354" y="10" width="120" height="40" as="geometry" />
        </mxCell>
        <mxCell id="1r-yqEnqhw9y3_G6ekeF-9" value="" style="edgeStyle=orthogonalEdgeStyle;rounded=0;orthogonalLoop=1;jettySize=auto;html=1;" parent="1" source="1r-yqEnqhw9y3_G6ekeF-2" target="1r-yqEnqhw9y3_G6ekeF-8" edge="1">
          <mxGeometry relative="1" as="geometry" />
        </mxCell>
        <mxCell id="1r-yqEnqhw9y3_G6ekeF-2" value="CANTIDAD" style="shape=parallelogram;perimeter=parallelogramPerimeter;whiteSpace=wrap;html=1;fixedSize=1;" parent="1" vertex="1">
          <mxGeometry x="354" y="120" width="120" height="30" as="geometry" />
        </mxCell>
        <mxCell id="1r-yqEnqhw9y3_G6ekeF-6" value="" style="edgeStyle=orthogonalEdgeStyle;rounded=0;orthogonalLoop=1;jettySize=auto;html=1;" parent="1" source="1r-yqEnqhw9y3_G6ekeF-3" target="1r-yqEnqhw9y3_G6ekeF-2" edge="1">
          <mxGeometry relative="1" as="geometry" />
        </mxCell>
        <mxCell id="1r-yqEnqhw9y3_G6ekeF-3" value="PRECIO" style="shape=parallelogram;perimeter=parallelogramPerimeter;whiteSpace=wrap;html=1;fixedSize=1;" parent="1" vertex="1">
          <mxGeometry x="354" y="70" width="120" height="30" as="geometry" />
        </mxCell>
        <mxCell id="1r-yqEnqhw9y3_G6ekeF-11" value="" style="edgeStyle=orthogonalEdgeStyle;rounded=0;orthogonalLoop=1;jettySize=auto;html=1;" parent="1" source="1r-yqEnqhw9y3_G6ekeF-8" target="1r-yqEnqhw9y3_G6ekeF-10" edge="1">
          <mxGeometry relative="1" as="geometry" />
        </mxCell>
        <mxCell id="1r-yqEnqhw9y3_G6ekeF-8" value="ABONAR := PRECIO * CANTIDAD" style="rounded=0;whiteSpace=wrap;html=1;" parent="1" vertex="1">
          <mxGeometry x="286" y="170" width="256" height="40" as="geometry" />
        </mxCell>
        <mxCell id="1r-yqEnqhw9y3_G6ekeF-13" value="" style="edgeStyle=orthogonalEdgeStyle;rounded=0;orthogonalLoop=1;jettySize=auto;html=1;" parent="1" source="1r-yqEnqhw9y3_G6ekeF-10" target="1r-yqEnqhw9y3_G6ekeF-12" edge="1">
          <mxGeometry relative="1" as="geometry" />
        </mxCell>
        <mxCell id="1r-yqEnqhw9y3_G6ekeF-10" value="ABONAR" style="shape=document;whiteSpace=wrap;html=1;boundedLbl=1;" parent="1" vertex="1">
          <mxGeometry x="354" y="230" width="120" height="40" as="geometry" />
        </mxCell>
        <mxCell id="1r-yqEnqhw9y3_G6ekeF-12" value="FIN" style="ellipse;whiteSpace=wrap;html=1;" parent="1" vertex="1">
          <mxGeometry x="354" y="290" width="120" height="40" as="geometry" />
        </mxCell>
      </root>
    </mxGraphModel>
  </diagram>
</mxfile>
